<svg width="24" height="24" viewBox="0 0 24 24" fill="none" xmlns="http://www.w3.org/2000/svg">
<g clip-path="url(#clip0_11_37)">
<path d="M15.0556 10.5731C14.1513 11.1773 13.0881 11.4999 12.0005 11.5C10.5421 11.4985 9.1439 10.9186 8.11267 9.88734C7.0815 8.85616 6.50152 7.45803 6.5 5.99974C6.50005 4.91204 6.82262 3.84876 7.42692 2.94437C8.03126 2.0399 8.89025 1.33495 9.89524 0.918665C10.9002 0.502383 12.0061 0.393465 13.073 0.605684C14.1399 0.817902 15.1199 1.34173 15.8891 2.11092C16.6583 2.8801 17.1821 3.86011 17.3943 4.92701C17.6065 5.9939 17.4976 7.09977 17.0813 8.10476C16.6651 9.10976 15.9601 9.96874 15.0556 10.5731ZM14.5001 2.25839C13.76 1.76392 12.89 1.5 12 1.5C10.8065 1.5 9.66193 1.97411 8.81802 2.81802C7.97411 3.66194 7.5 4.80653 7.5 6C7.5 6.89002 7.76392 7.76005 8.25839 8.50007C8.75285 9.24009 9.45566 9.81687 10.2779 10.1575C11.1002 10.4981 12.005 10.5872 12.8779 10.4135C13.7508 10.2399 14.5526 9.81132 15.182 9.18198C15.8113 8.55265 16.2399 7.75082 16.4135 6.87791C16.5872 6.00499 16.4981 5.10019 16.1575 4.27793C15.8169 3.45566 15.2401 2.75286 14.5001 2.25839Z" fill="#D9D9D9" stroke="black"/>
<path d="M12 14C9.61386 14.0026 7.32622 14.9517 5.63896 16.639C3.95171 18.3262 3.00265 20.6139 3 23C3 23.2652 3.10536 23.5196 3.29289 23.7071C3.48043 23.8946 3.73478 24 4 24C4.26522 24 4.51957 23.8946 4.70711 23.7071C4.89464 23.5196 5 23.2652 5 23C5 21.1435 5.7375 19.363 7.05025 18.0503C8.36301 16.7375 10.1435 16 12 16C13.8565 16 15.637 16.7375 16.9497 18.0503C18.2625 19.363 19 21.1435 19 23C19 23.2652 19.1054 23.5196 19.2929 23.7071C19.4804 23.8946 19.7348 24 20 24C20.2652 24 20.5196 23.8946 20.7071 23.7071C20.8946 23.5196 21 23.2652 21 23C20.9974 20.6139 20.0483 18.3262 18.361 16.639C16.6738 14.9517 14.3861 14.0026 12 14V14Z" fill="#222222"/>
</g>
<defs>
<clipPath id="clip0_11_37">
<rect width="24" height="24" fill="white"/>
</clipPath>
</defs>
</svg>
