<svg width="26" height="25" viewBox="0 0 26 25" fill="none" xmlns="http://www.w3.org/2000/svg">
<path d="M18.9582 -0.0065918C17.7383 0.0123827 16.545 0.352916 15.4989 0.980619C14.4527 1.60832 13.5907 2.50097 12.9999 3.56841C12.4091 2.50097 11.5471 1.60832 10.5009 0.980619C9.45471 0.352916 8.26143 0.0123827 7.04154 -0.0065918C5.09689 0.0778981 3.26472 0.9286 1.9453 2.35966C0.625888 3.79072 -0.073523 5.68581 -0.000126565 7.63091C-0.000126565 14.9705 11.8689 23.4476 12.3737 23.8072L12.9999 24.2503L13.626 23.8072C14.1309 23.4497 25.9999 14.9705 25.9999 7.63091C26.0733 5.68581 25.3739 3.79072 24.0544 2.35966C22.735 0.9286 20.9029 0.0778981 18.9582 -0.0065918ZM12.9999 21.5832C9.47579 18.9507 2.16654 12.4832 2.16654 7.63091C2.09248 6.26018 2.56344 4.91578 3.47668 3.89092C4.38993 2.86605 5.67138 2.24387 7.04154 2.16007C8.4117 2.24387 9.69315 2.86605 10.6064 3.89092C11.5196 4.91578 11.9906 6.26018 11.9165 7.63091H14.0832C14.0092 6.26018 14.4801 4.91578 15.3934 3.89092C16.3066 2.86605 17.588 2.24387 18.9582 2.16007C20.3284 2.24387 21.6098 2.86605 22.5231 3.89092C23.4363 4.91578 23.9073 6.26018 23.8332 7.63091C23.8332 12.4853 16.524 18.9507 12.9999 21.5832Z" fill="#222222"/>
</svg>
